<mxfile host="app.diagrams.net" agent="Mozilla/5.0 (Windows NT 10.0; Win64; x64; rv:136.0) Gecko/20100101 Firefox/136.0" version="26.1.1">
  <diagram name="Page-1" id="D0JhVql0RrHCheDNzNPF">
    <mxGraphModel dx="1434" dy="822" grid="1" gridSize="10" guides="1" tooltips="1" connect="1" arrows="1" fold="1" page="1" pageScale="1" pageWidth="1100" pageHeight="850" math="0" shadow="0">
      <root>
        <mxCell id="0" />
        <mxCell id="1" parent="0" />
        <mxCell id="tbWEsT_DXhPGWO2bRRjK-4" value="" style="group" vertex="1" connectable="0" parent="1">
          <mxGeometry y="220" width="270" height="140" as="geometry" />
        </mxCell>
        <mxCell id="tbWEsT_DXhPGWO2bRRjK-1" value="" style="rounded=1;whiteSpace=wrap;html=1;fillColor=#1ba1e2;fontColor=#ffffff;strokeColor=#006EAF;" vertex="1" parent="tbWEsT_DXhPGWO2bRRjK-4">
          <mxGeometry width="270" height="140" as="geometry" />
        </mxCell>
        <mxCell id="tbWEsT_DXhPGWO2bRRjK-2" value="&lt;font style=&quot;color: light-dark(rgb(0, 0, 0), rgb(26, 26, 26)); font-size: 18px;&quot; face=&quot;Tahoma&quot;&gt;Participante en el Dominio 1&lt;/font&gt;" style="text;html=1;align=center;verticalAlign=middle;whiteSpace=wrap;rounded=0;" vertex="1" parent="tbWEsT_DXhPGWO2bRRjK-4">
          <mxGeometry y="10" width="259.61538461538464" height="30" as="geometry" />
        </mxCell>
        <mxCell id="tbWEsT_DXhPGWO2bRRjK-13" value="&lt;span style=&quot;color: light-dark(rgb(0, 0, 0), rgb(26, 26, 26));&quot;&gt;&lt;font style=&quot;font-size: 18px;&quot;&gt;Publisher&lt;/font&gt;&lt;/span&gt;" style="rounded=1;whiteSpace=wrap;html=1;fillColor=light-dark(#008A00,#00CC66);strokeColor=#005700;arcSize=33;fontColor=#ffffff;" vertex="1" parent="tbWEsT_DXhPGWO2bRRjK-4">
          <mxGeometry x="67.5" y="70" width="124.61538461538463" height="40" as="geometry" />
        </mxCell>
        <mxCell id="tbWEsT_DXhPGWO2bRRjK-5" value="" style="group" vertex="1" connectable="0" parent="1">
          <mxGeometry x="440" y="220" width="290" height="140" as="geometry" />
        </mxCell>
        <mxCell id="tbWEsT_DXhPGWO2bRRjK-6" value="" style="rounded=1;whiteSpace=wrap;html=1;fillColor=#1ba1e2;fontColor=#ffffff;strokeColor=#006EAF;" vertex="1" parent="tbWEsT_DXhPGWO2bRRjK-5">
          <mxGeometry width="290" height="140" as="geometry" />
        </mxCell>
        <mxCell id="tbWEsT_DXhPGWO2bRRjK-7" value="&lt;font style=&quot;color: light-dark(rgb(0, 0, 0), rgb(26, 26, 26)); font-size: 18px;&quot; face=&quot;Tahoma&quot;&gt;Participante en el Dominio 2&lt;/font&gt;" style="text;html=1;align=center;verticalAlign=middle;whiteSpace=wrap;rounded=0;" vertex="1" parent="tbWEsT_DXhPGWO2bRRjK-5">
          <mxGeometry y="10" width="268.8873626373627" height="30" as="geometry" />
        </mxCell>
        <mxCell id="tbWEsT_DXhPGWO2bRRjK-14" value="&lt;span style=&quot;color: light-dark(rgb(0, 0, 0), rgb(26, 26, 26));&quot;&gt;&lt;font style=&quot;font-size: 18px;&quot;&gt;Publisher&lt;/font&gt;&lt;/span&gt;" style="rounded=1;whiteSpace=wrap;html=1;fillColor=light-dark(#008A00,#00CC66);fontColor=#ffffff;strokeColor=#005700;arcSize=33;" vertex="1" parent="tbWEsT_DXhPGWO2bRRjK-5">
          <mxGeometry x="150.57214285714286" y="70" width="129.0659340659341" height="40" as="geometry" />
        </mxCell>
        <mxCell id="tbWEsT_DXhPGWO2bRRjK-15" value="&lt;font style=&quot;font-size: 18px;&quot; face=&quot;Tahoma&quot;&gt;Subscriber&lt;/font&gt;" style="rounded=1;whiteSpace=wrap;html=1;fillColor=light-dark(#008A00,#00CC66);fontColor=#ffffff;strokeColor=#005700;arcSize=33;" vertex="1" parent="tbWEsT_DXhPGWO2bRRjK-5">
          <mxGeometry x="10.755494505494507" y="70" width="129.0659340659341" height="40" as="geometry" />
        </mxCell>
        <mxCell id="tbWEsT_DXhPGWO2bRRjK-8" value="" style="group" vertex="1" connectable="0" parent="1">
          <mxGeometry x="910" y="220" width="270" height="140" as="geometry" />
        </mxCell>
        <mxCell id="tbWEsT_DXhPGWO2bRRjK-9" value="" style="rounded=1;whiteSpace=wrap;html=1;fillColor=#1ba1e2;fontColor=#ffffff;strokeColor=#006EAF;" vertex="1" parent="tbWEsT_DXhPGWO2bRRjK-8">
          <mxGeometry width="270" height="140" as="geometry" />
        </mxCell>
        <mxCell id="tbWEsT_DXhPGWO2bRRjK-10" value="&lt;font style=&quot;color: light-dark(rgb(0, 0, 0), rgb(26, 26, 26)); font-size: 18px;&quot; face=&quot;Tahoma&quot;&gt;Participante en el Dominio 3&lt;/font&gt;" style="text;html=1;align=center;verticalAlign=middle;whiteSpace=wrap;rounded=0;" vertex="1" parent="tbWEsT_DXhPGWO2bRRjK-8">
          <mxGeometry y="10" width="259.61538461538464" height="30" as="geometry" />
        </mxCell>
        <mxCell id="tbWEsT_DXhPGWO2bRRjK-22" value="&lt;font style=&quot;font-size: 18px;&quot; face=&quot;Tahoma&quot;&gt;Subscriber&lt;/font&gt;" style="rounded=1;whiteSpace=wrap;html=1;fillColor=light-dark(#008A00,#00CC66);fontColor=#ffffff;strokeColor=#005700;arcSize=33;" vertex="1" parent="tbWEsT_DXhPGWO2bRRjK-8">
          <mxGeometry x="72.69461538461542" y="70" width="124.61538461538463" height="40" as="geometry" />
        </mxCell>
        <mxCell id="tbWEsT_DXhPGWO2bRRjK-24" style="edgeStyle=orthogonalEdgeStyle;rounded=0;orthogonalLoop=1;jettySize=auto;html=1;exitX=0.925;exitY=0.338;exitDx=0;exitDy=0;exitPerimeter=0;entryX=0;entryY=0.5;entryDx=0;entryDy=0;dashed=1;strokeColor=light-dark(#000000,#CCCCCC);align=center;verticalAlign=middle;fontFamily=Helvetica;fontSize=11;fontColor=default;labelBackgroundColor=default;startFill=0;endArrow=none;" edge="1" parent="1" source="tbWEsT_DXhPGWO2bRRjK-11" target="tbWEsT_DXhPGWO2bRRjK-15">
          <mxGeometry relative="1" as="geometry">
            <Array as="points">
              <mxPoint x="431" y="137" />
              <mxPoint x="431" y="310" />
            </Array>
          </mxGeometry>
        </mxCell>
        <mxCell id="tbWEsT_DXhPGWO2bRRjK-11" value="&lt;font style=&quot;font-size: 18px;&quot;&gt;&lt;span style=&quot;color: light-dark(rgb(0, 0, 0), rgb(26, 26, 26));&quot;&gt;Topic A&lt;/span&gt;&lt;/font&gt;" style="ellipse;shape=cloud;whiteSpace=wrap;html=1;fillColor=light-dark(#F5F5F5,#E6E6E6);fontColor=#333333;strokeColor=light-dark(#666666,#333333);" vertex="1" parent="1">
          <mxGeometry x="290" y="110" width="120" height="80" as="geometry" />
        </mxCell>
        <mxCell id="tbWEsT_DXhPGWO2bRRjK-26" style="edgeStyle=orthogonalEdgeStyle;rounded=0;orthogonalLoop=1;jettySize=auto;html=1;exitX=0.88;exitY=0.25;exitDx=0;exitDy=0;exitPerimeter=0;entryX=0;entryY=0.5;entryDx=0;entryDy=0;dashed=1;strokeColor=light-dark(#000000,#CCCCCC);align=center;verticalAlign=middle;fontFamily=Helvetica;fontSize=11;fontColor=default;labelBackgroundColor=default;startFill=0;endArrow=none;" edge="1" parent="1" source="tbWEsT_DXhPGWO2bRRjK-12" target="tbWEsT_DXhPGWO2bRRjK-22">
          <mxGeometry relative="1" as="geometry">
            <Array as="points">
              <mxPoint x="920" y="130" />
              <mxPoint x="920" y="310" />
            </Array>
          </mxGeometry>
        </mxCell>
        <mxCell id="tbWEsT_DXhPGWO2bRRjK-12" value="&lt;font style=&quot;font-size: 18px;&quot;&gt;&lt;span style=&quot;color: light-dark(rgb(0, 0, 0), rgb(26, 26, 26));&quot;&gt;Topic B&lt;/span&gt;&lt;/font&gt;" style="ellipse;shape=cloud;whiteSpace=wrap;html=1;fillColor=light-dark(#F5F5F5,#E6E6E6);fontColor=#333333;strokeColor=light-dark(#666666,#333333);" vertex="1" parent="1">
          <mxGeometry x="760" y="110" width="120" height="80" as="geometry" />
        </mxCell>
        <mxCell id="tbWEsT_DXhPGWO2bRRjK-23" style="edgeStyle=orthogonalEdgeStyle;rounded=0;orthogonalLoop=1;jettySize=auto;html=1;exitX=1;exitY=0.5;exitDx=0;exitDy=0;entryX=0.07;entryY=0.4;entryDx=0;entryDy=0;entryPerimeter=0;endArrow=none;startFill=0;dashed=1;strokeColor=light-dark(#000000,#CCCCCC);" edge="1" parent="1" source="tbWEsT_DXhPGWO2bRRjK-13" target="tbWEsT_DXhPGWO2bRRjK-11">
          <mxGeometry relative="1" as="geometry">
            <Array as="points">
              <mxPoint x="260" y="310" />
              <mxPoint x="260" y="142" />
            </Array>
          </mxGeometry>
        </mxCell>
        <mxCell id="tbWEsT_DXhPGWO2bRRjK-25" style="edgeStyle=orthogonalEdgeStyle;rounded=0;orthogonalLoop=1;jettySize=auto;html=1;exitX=1;exitY=0.5;exitDx=0;exitDy=0;entryX=0.07;entryY=0.4;entryDx=0;entryDy=0;entryPerimeter=0;dashed=1;strokeColor=light-dark(#000000,#CCCCCC);align=center;verticalAlign=middle;fontFamily=Helvetica;fontSize=11;fontColor=default;labelBackgroundColor=default;startFill=0;endArrow=none;" edge="1" parent="1" source="tbWEsT_DXhPGWO2bRRjK-14" target="tbWEsT_DXhPGWO2bRRjK-12">
          <mxGeometry relative="1" as="geometry">
            <Array as="points">
              <mxPoint x="740" y="310" />
              <mxPoint x="740" y="142" />
            </Array>
          </mxGeometry>
        </mxCell>
        <mxCell id="tbWEsT_DXhPGWO2bRRjK-30" style="edgeStyle=orthogonalEdgeStyle;rounded=0;orthogonalLoop=1;jettySize=auto;html=1;exitX=1;exitY=0.5;exitDx=0;exitDy=0;entryX=0.5;entryY=1;entryDx=0;entryDy=0;strokeColor=light-dark(#000000,#6600CC);strokeWidth=2;align=center;verticalAlign=middle;fontFamily=Helvetica;fontSize=11;fontColor=default;labelBackgroundColor=default;endArrow=classic;" edge="1" parent="1" source="tbWEsT_DXhPGWO2bRRjK-27" target="tbWEsT_DXhPGWO2bRRjK-15">
          <mxGeometry relative="1" as="geometry" />
        </mxCell>
        <mxCell id="tbWEsT_DXhPGWO2bRRjK-27" value="&lt;font style=&quot;font-size: 18px;&quot; face=&quot;Tahoma&quot;&gt;Data A&lt;/font&gt;" style="rounded=0;whiteSpace=wrap;html=1;fillColor=#76608a;fontColor=#ffffff;strokeColor=#432D57;" vertex="1" parent="1">
          <mxGeometry x="305" y="400" width="90" height="40" as="geometry" />
        </mxCell>
        <mxCell id="tbWEsT_DXhPGWO2bRRjK-32" style="edgeStyle=orthogonalEdgeStyle;rounded=0;orthogonalLoop=1;jettySize=auto;html=1;exitX=1;exitY=0.5;exitDx=0;exitDy=0;entryX=0.5;entryY=1;entryDx=0;entryDy=0;strokeColor=light-dark(#000000,#6600CC);strokeWidth=2;align=center;verticalAlign=middle;fontFamily=Helvetica;fontSize=11;fontColor=default;labelBackgroundColor=default;endArrow=classic;" edge="1" parent="1" source="tbWEsT_DXhPGWO2bRRjK-28" target="tbWEsT_DXhPGWO2bRRjK-22">
          <mxGeometry relative="1" as="geometry" />
        </mxCell>
        <mxCell id="tbWEsT_DXhPGWO2bRRjK-28" value="&lt;font style=&quot;font-size: 18px;&quot; face=&quot;Tahoma&quot;&gt;Data B&lt;/font&gt;" style="rounded=0;whiteSpace=wrap;html=1;fillColor=#76608a;fontColor=#ffffff;strokeColor=#432D57;" vertex="1" parent="1">
          <mxGeometry x="775" y="400" width="90" height="40" as="geometry" />
        </mxCell>
        <mxCell id="tbWEsT_DXhPGWO2bRRjK-29" style="edgeStyle=orthogonalEdgeStyle;rounded=0;orthogonalLoop=1;jettySize=auto;html=1;exitX=0.5;exitY=1;exitDx=0;exitDy=0;entryX=0;entryY=0.5;entryDx=0;entryDy=0;strokeWidth=2;strokeColor=light-dark(#000000,#6600CC);" edge="1" parent="1" source="tbWEsT_DXhPGWO2bRRjK-13" target="tbWEsT_DXhPGWO2bRRjK-27">
          <mxGeometry relative="1" as="geometry" />
        </mxCell>
        <mxCell id="tbWEsT_DXhPGWO2bRRjK-31" style="edgeStyle=orthogonalEdgeStyle;rounded=0;orthogonalLoop=1;jettySize=auto;html=1;exitX=0.5;exitY=1;exitDx=0;exitDy=0;entryX=0;entryY=0.5;entryDx=0;entryDy=0;strokeColor=light-dark(#000000,#6600CC);strokeWidth=2;align=center;verticalAlign=middle;fontFamily=Helvetica;fontSize=11;fontColor=default;labelBackgroundColor=default;endArrow=classic;" edge="1" parent="1" source="tbWEsT_DXhPGWO2bRRjK-14" target="tbWEsT_DXhPGWO2bRRjK-28">
          <mxGeometry relative="1" as="geometry" />
        </mxCell>
        <mxCell id="tbWEsT_DXhPGWO2bRRjK-33" value="&lt;div class=&quot;QmZWSe&quot;&gt;&lt;div class=&quot;DHcWmd&quot;&gt;&lt;/div&gt;&lt;/div&gt;&lt;div class=&quot;oSioSc&quot;&gt;&lt;div id=&quot;tw-target&quot;&gt;&lt;div data-entityname=&quot;Google Translate&quot; data-attrid=&quot;tw-targetArea&quot; class=&quot;g9WsWb PZPZlf&quot; id=&quot;kAz1tf&quot;&gt;&lt;div role=&quot;text&quot; tabindex=&quot;0&quot; id=&quot;tw-target-text-container&quot; class=&quot;tw-ta-container tw-nfl&quot;&gt;&lt;pre aria-label=&quot;Texto traducido: Descripción general de la especificación DDS&quot; dir=&quot;ltr&quot; data-ved=&quot;2ahUKEwjum5W9mZWMAxVHN0QIHQoxLa4Q3ewLegQICBAV&quot; style=&quot;text-align:left&quot; id=&quot;tw-target-text&quot; data-placeholder=&quot;Traducción&quot; class=&quot;tw-data-text tw-text-large tw-ta&quot;&gt;&lt;font style=&quot;font-size: 24px;&quot; face=&quot;Tahoma&quot;&gt;&lt;span lang=&quot;es&quot; class=&quot;Y2IQFc&quot;&gt;Descripción general de la especificación DDS&lt;/span&gt;&lt;/font&gt;&lt;/pre&gt;&lt;/div&gt;&lt;/div&gt;&lt;/div&gt;&lt;/div&gt;" style="text;html=1;align=center;verticalAlign=middle;whiteSpace=wrap;rounded=0;" vertex="1" parent="1">
          <mxGeometry x="330" y="50" width="510" height="30" as="geometry" />
        </mxCell>
      </root>
    </mxGraphModel>
  </diagram>
</mxfile>
